<?xml version="1.0" standalone="no"?>
<!DOCTYPE svg PUBLIC "-//W3C//DTD SVG 20010904//EN"
 "http://www.w3.org/TR/2001/REC-SVG-20010904/DTD/svg10.dtd">
<svg version="1.0" xmlns="http://www.w3.org/2000/svg"
 width="178.000000pt" height="127.000000pt" viewBox="0 0 178.000000 127.000000"
 preserveAspectRatio="xMidYMid meet">
<metadata>
Created by potrace 1.15, written by Peter Selinger 2001-2017
</metadata>
<g transform="translate(0.000000,127.000000) scale(0.100000,-0.100000)"
fill="#000000" stroke="none">
<path d="M1005 1070 c-22 -3 -106 -30 -187 -60 -135 -48 -166 -67 -139 -84 9
-6 111 31 250 91 l85 36 112 -7 c62 -3 120 -9 130 -13 12 -4 15 -2 12 8 -7 21
-186 41 -263 29z"/>
<path d="M1040 1026 c-25 -6 -70 -22 -100 -33 -30 -12 -87 -31 -126 -42 -39
-11 -78 -29 -87 -39 -16 -18 -16 -20 3 -37 20 -18 22 -18 58 0 22 11 69 20
117 23 63 4 91 11 130 32 58 32 133 50 211 50 39 0 54 4 52 12 -12 34 -114 35
-178 3 -73 -37 -222 -85 -265 -85 -51 0 -36 14 37 35 100 28 228 76 228 86 0
12 -25 10 -80 -5z"/>
<path d="M1180 879 c-30 -4 -113 -5 -185 -2 -91 3 -139 1 -160 -7 -40 -17 -14
-25 31 -10 26 9 39 9 47 1 7 -7 91 -11 258 -11 204 0 248 2 252 14 3 8 -1 17
-9 20 -21 8 -166 5 -234 -5z"/>
<path d="M390 703 c-41 -21 -60 -54 -60 -103 0 -72 67 -120 140 -100 35 9 70
41 70 62 0 17 -40 7 -50 -12 -6 -11 -21 -22 -34 -26 -58 -14 -99 55 -72 119
22 53 82 62 106 16 12 -21 50 -26 50 -6 0 22 -43 55 -80 62 -24 4 -46 0 -70
-12z"/>
<path d="M633 713 c-24 -5 -53 -38 -53 -60 0 -22 37 -51 80 -63 45 -12 59 -32
40 -55 -17 -21 -46 -19 -71 6 -11 11 -29 19 -41 17 l-20 -3 21 -26 c24 -31 66
-42 112 -29 38 11 49 25 49 61 0 33 -15 46 -71 62 -45 13 -64 42 -37 58 21 14
37 11 55 -11 18 -20 53 -28 53 -11 0 5 -8 18 -17 30 -19 22 -62 32 -100 24z"/>
<path d="M80 605 l0 -105 25 0 c23 0 25 4 25 45 l0 45 55 0 55 0 0 -45 c0 -38
3 -45 20 -45 19 0 20 7 20 105 0 98 -1 105 -20 105 -17 0 -20 -7 -20 -45 l0
-45 -55 0 -55 0 0 45 c0 41 -2 45 -25 45 l-25 0 0 -105z"/>
<path d="M813 605 c-40 -104 -40 -105 -18 -105 17 0 26 9 34 30 9 27 14 30 53
30 39 0 45 -3 55 -30 8 -20 18 -30 32 -30 12 0 21 3 20 8 0 4 -17 50 -37 102
-35 89 -39 95 -68 98 -29 3 -30 1 -71 -103z"/>
<path d="M1013 630 c-21 -8 -22 -12 -11 -35 10 -22 17 -26 37 -21 15 3 69 9
121 12 102 7 172 30 135 45 -28 11 -255 10 -282 -1z"/>
<path d="M536 259 c-14 -11 -26 -27 -26 -35 0 -19 56 -19 64 1 3 8 16 15 30
15 48 0 41 -22 -28 -87 l-68 -63 96 0 c89 0 96 1 96 20 0 16 -7 20 -37 20
l-38 0 38 35 c43 40 49 76 15 99 -33 23 -109 21 -142 -5z"/>
<path d="M90 170 l0 -30 200 0 200 0 0 30 0 30 -200 0 -200 0 0 -30z"/>
</g>
</svg>
